# xmcd
#
# Track frame offsets:
#	150
#	11570
#	23685
#	36345
#	47783
#	61528
#	69997
#	80407
#	93562
#	106363
#	117129
#	127602
#	139667
#
# Disc length: 2018 seconds
#
# Revision: 1
# Processed by: cddbd v1.5.2PL0 Copyright (c) Steve Scherf et al.
# Submitted via: audiograbber 1.83.01
#
DISCID=9b07e00d
DTITLE=slim whitman - heart songs and love songs (1962)
DYEAR=2013
DGENRE=Country
TTITLE0=blues stay away from me
TTITLE1=my heart is broken in three
TTITLE2=restless heart
TTITLE3=i hate to see you cry
TTITLE4=you have my heart
TTITLE5=cryin' for the moon
TTITLE6=i must have been blind
TTITLE7=riding the range for jesus
TTITLE8=stairway to heaven
TTITLE9=why
TTITLE10=song of the wild
TTITLE11=at the close of a long long day
TTITLE12=backward, turn backward (bonus track) Single 1962
EXTD=
EXTT0=
EXTT1=
EXTT2=
EXTT3=
EXTT4=
EXTT5=
EXTT6=
EXTT7=
EXTT8=
EXTT9=
EXTT10=
EXTT11=
EXTT12=
PLAYORDER=
